<?xml version="1.0" encoding="UTF-8" standalone="no"?>
<!-- Created with Inkscape (http://www.inkscape.org/) -->

<svg
   width="1800px"
   height="600px"
   viewBox="0 0 1800 600"
   version="1.1"
   id="SVGRoot"
   sodipodi:docname="raven-labs-limited-text.svg"
   inkscape:version="1.1.1 (3bf5ae0d25, 2021-09-20)"
   inkscape:export-filename="/var/home/joe/Documents/raven-text.png"
   inkscape:export-xdpi="96"
   inkscape:export-ydpi="96"
   xmlns:inkscape="http://www.inkscape.org/namespaces/inkscape"
   xmlns:sodipodi="http://sodipodi.sourceforge.net/DTD/sodipodi-0.dtd"
   xmlns:xlink="http://www.w3.org/1999/xlink"
   xmlns="http://www.w3.org/2000/svg"
   xmlns:svg="http://www.w3.org/2000/svg">
  <sodipodi:namedview
     id="namedview1186"
     pagecolor="#ffffff"
     bordercolor="#666666"
     borderopacity="1.0"
     inkscape:pageshadow="2"
     inkscape:pageopacity="0.0"
     inkscape:pagecheckerboard="0"
     inkscape:document-units="px"
     showgrid="false"
     inkscape:zoom="0.32026164"
     inkscape:cx="899.26473"
     inkscape:cy="633.85673"
     inkscape:window-width="1920"
     inkscape:window-height="1011"
     inkscape:window-x="0"
     inkscape:window-y="0"
     inkscape:window-maximized="1"
     inkscape:current-layer="layer1" />
  <defs
     id="defs1181">
    <rect
       x="902.63111"
       y="253.82079"
       width="95.685924"
       height="90.502174"
       id="rect13772" />
    <linearGradient
       inkscape:collect="always"
       xlink:href="#linearGradient4374"
       id="linearGradient4376"
       x1="475.53134"
       y1="78.543793"
       x2="144.47827"
       y2="547.31439"
       gradientUnits="userSpaceOnUse"
       gradientTransform="matrix(0.86352751,0,0,0.86352751,53.998918,8.4660478)" />
    <linearGradient
       inkscape:collect="always"
       id="linearGradient4374">
      <stop
         style="stop-color:#cccccc;stop-opacity:1"
         offset="0"
         id="stop4370" />
      <stop
         style="stop-color:#333333;stop-opacity:1"
         offset="1"
         id="stop4372" />
    </linearGradient>
  </defs>
  <g
     inkscape:label="Layer 1"
     inkscape:groupmode="layer"
     id="layer1">
    <circle
       style="fill:url(#linearGradient4376);fill-opacity:1;stroke-width:2.72377px;-inkscape-stroke:none;stop-color:#000000"
       id="path4168"
       cx="308.05112"
       cy="284.16696"
       r="232.21111"
       inkscape:export-filename="/var/home/joe/Documents/raven.png"
       inkscape:export-xdpi="96"
       inkscape:export-ydpi="96" />
    <path
       id="path56"
       style="fill:#000000;stroke:none;stroke-width:3.89265px;stroke-linecap:butt;stroke-linejoin:miter;stroke-opacity:1"
       d="m 177.73311,50.103058 c -2.56737,0.0518 -5.27174,0.49536 -8.39063,1.48243 -6.23778,1.97416 -14.13016,6.12441 -18.41016,8.23437 -4.28001,2.11 -4.94796,2.18095 -9.50781,2.82422 -4.55984,0.6432 -13.01276,1.85865 -22.41601,5.74023 -9.40328,3.88162 -19.756702,10.42896 -24.933602,13.70313 -5.17688,3.27421 -5.17495,3.2732 -5.09375,3.80664 0.0812,0.53344 0.24289,1.59919 3.64063,2.30664 3.39772,0.70745 10.029022,1.05744 17.531252,1.76758 7.50222,0.71013 15.87537,1.78207 20.73047,2.71875 4.85508,0.9366 6.19151,1.738903 7.9375,3.509763 1.74601,1.77086 3.90175,4.508689 5.00586,5.998049 1.10412,1.4894 1.15805,1.72948 1.47851,6.59766 0.32046,4.86822 0.90662,14.36551 1.9082,18.65429 0.21176,0.90674 0.4415,1.56776 0.67969,2.0625 0.0128,0.0911 0.0246,0.16988 0.0391,0.27344 0.0333,0.23848 0.14834,1.0813 0.23047,1.63281 0.1395,0.93687 0.34623,2.19809 0.71094,3.46094 0.15693,0.52899 0.33683,1.05482 0.56641,1.57031 0.2423,3.45025 0.46714,6.50095 0.70703,9.89844 -0.2922,6.52214 -0.50522,13.91612 -0.1875,19.14649 0.35879,5.90623 1.38289,8.9074 2.3789,11.30468 0.22053,2.928 0.45054,5.76167 0.6875,8.47461 -0.005,0.0151 -0.0177,0.0422 -0.0215,0.0547 -0.0336,0.11754 -0.0553,0.22941 -0.0703,0.31445 -0.0276,0.15647 -0.0531,0.34835 -0.0781,0.57032 -0.0336,0.18331 -0.0517,0.36077 -0.0586,0.52734 -0.008,0.19578 -9e-4,0.39148 0.0156,0.58008 0.017,0.18482 0.0477,0.37865 0.0937,0.57031 0.0132,0.0556 0.0353,0.12363 0.0547,0.1875 3e-5,0.0911 -6.7e-4,0.18216 0.004,0.26758 0.003,0.0571 0.008,0.11934 0.0137,0.18359 0.006,0.0627 0.0142,0.14074 0.0312,0.22657 0.0155,0.0801 0.0464,0.20844 0.10351,0.35546 0.0299,0.076 0.0731,0.17675 0.13868,0.28711 0.042,0.0703 0.10552,0.15734 0.18164,0.24805 0.63041,6.30766 1.39556,12.07391 2.55078,17.21289 2.04926,9.11596 5.28531,16.47764 9.42969,21.82617 4.14437,5.34856 9.19609,8.6834 16.46093,17.78711 7.26481,9.10367 16.74191,23.97326 23.76172,36.42578 7.01981,12.45248 11.58255,22.48818 16.01758,38.29688 4.43503,15.80867 8.74194,37.3904 10.92383,48.97265 2.18189,11.58229 2.23872,13.16342 -1.06445,19.18946 -2.31309,4.2198 -6.27815,10.47611 -9.85352,16.22461 L 5.3561482,368.40385 2.1178682,387.24955 621.071,493.6265 624.30928,474.78275 278.95186,415.42728 c 0.8954,-1.06407 1.67102,-2.97829 3.79296,-6.84179 3.78496,-6.8914 11.95068,-19.67939 17.73438,-29.17969 5.7837,-9.50029 9.1847,-15.71284 10.625,-23.81641 1.44029,-8.10353 0.91778,-18.09709 1.50586,-23.54687 0.58809,-5.44977 2.28607,-6.35375 3.90039,-6.51563 1.61431,-0.16177 3.14412,0.41891 6.34961,1.98828 3.20542,1.56938 8.08561,4.12788 11.47656,5.66211 3.39088,1.53411 5.29215,2.0447 6.27734,1.43555 0.98524,-0.60918 1.05429,-2.3391 5.12696,-4.26953 4.0727,-1.93043 12.14841,-4.06144 26.01172,-2.51758 13.86335,1.5439 33.51242,6.76249 44.6914,8.67383 11.17901,1.91135 13.8887,0.51765 25.42578,4.88281 11.53709,4.36517 31.90054,14.48768 41.33008,16.54688 9.42958,2.05916 7.9231,-3.94853 14.2461,-3.05664 6.32296,0.89194 20.47474,8.68341 26.49023,10.26757 6.01561,1.58415 3.89624,-3.03868 5.86133,-3.80078 1.96509,-0.76211 8.01394,2.33896 10.35547,2.3418 2.34149,0.003 0.97433,-3.09412 1.65234,-4.6582 0.67805,-1.56412 3.40184,-1.59298 4.02735,-2.19532 0.62554,-0.60238 -0.84604,-1.77926 -6.52735,-5.01367 -5.68134,-3.23444 -15.5742,-8.52781 -24.85937,-13.72265 -9.28513,-5.19477 -17.96288,-10.28935 -28.34766,-17.13672 -10.38478,-6.84741 -22.47482,-15.44865 -30.39844,-21.20899 -7.92356,-5.76042 -11.6794,-8.67953 -12.11133,-10.00195 -0.43192,-1.32094 2.46061,-1.04605 8.06055,0.01 5.59994,1.05543 13.9073,2.88941 23.60156,5.22656 9.69418,2.33715 20.77562,5.17735 31.53125,7.96679 10.75559,2.78937 21.18607,5.52764 26.63672,6.37305 5.45064,0.84533 5.92128,-0.20149 9.23438,0.11524 3.31306,0.31672 9.46544,1.99754 12.59961,1.92187 3.13418,-0.0756 3.25224,-1.90829 2.35937,-3.89844 -0.8928,-1.99011 -2.7967,-4.1371 -6.45117,-6.9414 -3.65446,-2.8043 -9.05978,-6.26687 -15.64648,-9.34375 -6.5867,-3.07691 -14.35573,-5.76785 -23.74219,-8.5918 -9.38653,-2.82399 -20.39135,-5.77875 -30.89844,-8.75781 -1.16515,-0.33036 -1.94249,-0.6195 -2.98242,-0.93555 -1.29806,-1.02559 -2.75717,-2.18923 -3.67774,-2.90039 -18.80585,-14.52801 -38.99961,-27.08994 -81.65429,-50.6582 -17.01851,-11.61119 -38.65267,-24.23725 -76.33789,-44.87305 -2.2156,-1.21322 -2.85421,-1.54856 -5.19336,-2.82422 -14.51664,-11.36941 -34.07873,-26.69175 -45.55469,-35.65625 -13.86364,-10.82967 -14.14982,-10.99586 -17.17383,-15.94531 -3.024,-4.94944 -8.78612,-14.68293 -13.12109,-22.179689 -4.33498,-7.496743 -7.24264,-12.756723 -10.71485,-17.753913 -3.47223,-4.99719 -7.50772,-9.7307 -11.375,-13.64062 -3.86729,-3.90992 -7.5655,-6.99612 -12.26171,-9.59961 -4.69621,-2.60353 -10.3897,-4.72434 -15.52735,-5.88477 -2.56882,-0.58019 -4.99902,-0.92091 -7.5664,-0.86914 z m 92.54296,273.378912 c 2.49286,0.11438 5.02641,0.85913 7.3086,1.66016 4.56437,1.60211 8.11852,3.42467 9.74219,4.32031 1.62369,0.89567 1.31692,0.86426 1.7207,8.50586 0.40378,7.64156 1.51999,22.95709 -0.59375,34.23437 -2.11374,11.27731 -7.45535,18.51781 -11.83008,22.3086 -4.37473,3.79075 -7.78409,4.12877 -9.19531,6.19726 -1.41124,2.06846 -0.82246,5.86501 -2.35547,8.69727 -0.68614,1.26765 -1.77108,2.28266 -2.5957,3.18945 l -22.64258,-3.89258 c -1.16116,-0.98659 -2.65393,-1.89662 -3.95508,-2.46289 -2.05915,-0.89613 -2.96631,-1.00393 -0.25781,-5.64062 2.70855,-4.63665 9.03384,-13.80328 12.60937,-19.37305 3.57554,-5.56986 4.4002,-7.54367 4.77539,-12.88086 0.3752,-5.3371 0.30272,-14.03879 1.70508,-22.52734 1.40237,-8.48856 4.2782,-16.76314 8.50586,-20.21094 2.11384,-1.72392 4.56574,-2.23938 7.05859,-2.125 z m 606.82618,947.19333 c 1.60177,0.396 4.80472,1.1856 4.80472,1.1856 -6.40724,-1.5815 -6.40652,-1.5808 -4.80472,-1.1856 z m 557.46885,316.6406 0.027,0.041 z"
       inkscape:export-filename="/var/home/joe/Documents/raven.png"
       inkscape:export-xdpi="96"
       inkscape:export-ydpi="96" />
    <g
       aria-label="Raven Labs"
       id="text4096"
       style="font-size:40px;line-height:1.25">
      <path
         d="m 699.21151,324.51454 q 12.672,0 12.672,9.6 0,9.6 -12.672,9.6 h -15.168 q -7.104,-13.824 -18.24,-27.072 -10.944,-13.44 -17.088,-15.552 h -18.432 v 23.424 h 6.72 q 12.672,0 12.672,9.6 0,9.6 -12.672,9.6 h -28.8 q -12.672,0 -12.672,-9.6 0,-9.6 12.672,-9.6 h 2.88 v -73.536 h -2.88 q -12.672,0 -12.672,-9.6 0,-5.568 3.264,-7.488 3.264,-2.112 9.408,-2.112 h 42.816 q 18.624,0 30.336,9.6 11.904,9.408 11.904,24.576 0,17.664 -20.736,28.992 12.48,10.944 24.192,29.568 z m -68.928,-42.624 h 14.592 q 12.096,0 19.968,-4.608 8.064,-4.8 8.064,-11.904 0,-6.144 -5.952,-10.176 -5.952,-4.224 -15.168,-4.224 h -21.504 z"
         style="font-weight:bold;font-size:192px;font-family:FreeMono;-inkscape-font-specification:'FreeMono, Bold'"
         id="path69069" />
      <path
         d="m 718.21921,320.86654 q 0,-13.056 12.864,-22.656 12.864,-9.792 33.6,-9.792 8.64,0 19.968,1.92 v -4.416 q 0,-9.408 -17.856,-9.408 -7.872,0 -17.856,2.304 -9.984,2.112 -12.096,2.112 -4.032,0 -6.72,-2.688 -2.688,-2.88 -2.688,-7.104 0,-6.144 5.76,-8.064 16.32,-5.76 33.024,-5.76 17.664,0 27.648,7.488 10.176,7.488 10.176,20.928 v 38.784 h 3.072 q 12.672,0 12.672,9.6 0,9.6 -12.672,9.6 h -22.464 v -4.416 q -14.4,7.488 -31.872,7.488 -14.208,0 -24.384,-7.488 -10.176,-7.68 -10.176,-18.432 z m 66.624,-3.072 v -9.6 q -12.096,-2.112 -21.312,-2.112 -9.792,0 -17.472,4.224 -7.488,4.224 -7.488,9.792 0,3.264 4.224,5.376 4.224,2.112 10.368,2.112 15.744,0 31.68,-9.792 z"
         style="font-weight:bold;font-size:192px;font-family:FreeMono;-inkscape-font-specification:'FreeMono, Bold'"
         id="path69071" />
      <path
         d="m 876.04292,269.41054 q 0,9.6 -12.672,9.6 h -0.96 l 20.928,41.28 20.544,-41.28 h -1.92 q -12.672,0 -12.672,-9.6 0,-9.6 12.672,-9.6 h 25.92 q 6.144,0 9.408,2.112 3.264,1.92 3.264,7.488 0,9.6 -12.672,9.6 h -3.072 l -32.064,64.704 h -19.968 l -32.064,-64.704 h -2.688 q -12.672,0 -12.672,-9.6 0,-9.6 12.672,-9.6 h 25.344 q 6.144,0 9.408,2.112 3.264,1.92 3.264,7.488 z"
         style="font-weight:bold;font-size:192px;font-family:FreeMono;-inkscape-font-specification:'FreeMono, Bold'"
         id="path69073" />
      <path
         d="m 1046.1546,330.85054 q 0,6.144 -11.136,10.176 -11.136,3.84 -20.928,4.8 -9.6,0.96 -16.51197,0.96 -22.272,0 -36.48,-12.48 -14.208,-12.48 -14.208,-32.064 0,-19.008 14.208,-31.872 14.4,-13.056 35.328,-13.056 21.50397,0 35.51997,13.056 14.208,13.056 14.208,32.832 v 7.488 h -78.33597 q 6.528,16.896 31.488,16.896 10.17597,0 22.65597,-3.072 12.48,-3.264 14.976,-3.264 3.84,0 6.528,2.88 2.688,2.688 2.688,6.72 z m -77.75997,-37.056 h 56.44797 q -2.304,-7.872 -9.984,-12.48 -7.68,-4.8 -18.23997,-4.8 -10.56,0 -18.432,4.8 -7.68,4.8 -9.792,12.48 z"
         style="font-weight:bold;font-size:192px;font-family:FreeMono;-inkscape-font-specification:'FreeMono, Bold'"
         id="path69075" />
      <path
         d="m 1072.8423,343.71454 q -12.672,0 -12.672,-9.6 0,-9.6 12.672,-9.6 h 1.152 v -45.504 q -11.712,-0.384 -11.712,-9.6 0,-9.6 12.864,-9.6 h 18.048 v 9.216 q 6.912,-6.528 12.672,-9.024 5.76,-2.688 13.632,-2.688 14.976,0 24.576,8.448 9.6,8.448 9.6,23.808 v 34.944 q 11.712,0 11.712,9.6 0,9.6 -12.672,9.6 h -17.088 q -12.864,0 -12.864,-9.6 0,-9.6 11.712,-9.6 v -34.176 q 0,-13.824 -17.28,-13.824 -6.72,0 -12.096,2.88 -5.184,2.88 -11.904,10.176 v 34.944 h 1.152 q 12.672,0 12.672,9.6 0,9.6 -12.672,9.6 z"
         style="font-weight:bold;font-size:192px;font-family:FreeMono;-inkscape-font-specification:'FreeMono, Bold'"
         id="path69077" />
      <path
         d="m 1386.1857,293.98654 q 5.568,0 7.488,3.264 2.112,3.264 2.112,9.6 v 36.864 h -90.624 q -12.672,0 -12.672,-9.6 0,-5.568 3.264,-7.488 3.264,-2.112 9.408,-2.112 h 10.944 v -73.536 h -10.944 q -12.672,0 -12.672,-9.6 0,-5.568 3.264,-7.488 3.264,-2.112 9.408,-2.112 h 41.088 q 12.672,0 12.672,9.6 0,9.6 -12.672,9.6 h -10.944 v 73.536 h 41.28 v -17.664 q 0,-12.864 9.6,-12.864 z"
         style="font-weight:bold;font-size:192px;font-family:FreeMono;-inkscape-font-specification:'FreeMono, Bold'"
         id="path69079" />
      <path
         d="m 1409.4175,320.86654 q 0,-13.056 12.864,-22.656 12.864,-9.792 33.6,-9.792 8.64,0 19.968,1.92 v -4.416 q 0,-9.408 -17.856,-9.408 -7.872,0 -17.856,2.304 -9.984,2.112 -12.096,2.112 -4.032,0 -6.72,-2.688 -2.688,-2.88 -2.688,-7.104 0,-6.144 5.76,-8.064 16.32,-5.76 33.024,-5.76 17.664,0 27.648,7.488 10.176,7.488 10.176,20.928 v 38.784 h 3.072 q 12.672,0 12.672,9.6 0,9.6 -12.672,9.6 h -22.464 v -4.416 q -14.4,7.488 -31.872,7.488 -14.208,0 -24.384,-7.488 -10.176,-7.68 -10.176,-18.432 z m 66.624,-3.072 v -9.6 q -12.096,-2.112 -21.312,-2.112 -9.792,0 -17.472,4.224 -7.488,4.224 -7.488,9.792 0,3.264 4.224,5.376 4.224,2.112 10.368,2.112 15.744,0 31.68,-9.792 z"
         style="font-weight:bold;font-size:192px;font-family:FreeMono;-inkscape-font-specification:'FreeMono, Bold'"
         id="path69081" />
      <path
         d="m 1515.0172,233.69854 q 0,-9.6 12.672,-9.6 h 22.272 v 42.624 q 12.096,-9.6 28.8,-9.6 21.696,0 34.56,12.864 12.864,12.672 12.864,31.872 0,19.2 -13.056,31.872 -13.056,12.672 -34.176,12.672 -15.36,0 -28.992,-9.408 v 6.72 h -22.272 q -12.672,0 -12.672,-9.6 0,-5.568 3.264,-7.488 3.264,-2.112 9.408,-2.112 h 3.072 v -81.216 h -3.072 q -6.144,0 -9.408,-1.92 -3.264,-2.112 -3.264,-7.68 z m 63.552,42.624 q -13.056,0 -20.928,7.296 -7.68,7.104 -7.68,17.856 0,11.328 7.872,18.624 8.064,7.104 20.736,7.104 12.48,0 20.352,-7.104 8.064,-7.296 8.064,-18.432 0,-10.752 -7.872,-18.048 -7.872,-7.296 -20.544,-7.296 z"
         style="font-weight:bold;font-size:192px;font-family:FreeMono;-inkscape-font-specification:'FreeMono, Bold'"
         id="path69083" />
      <path
         d="m 1728.9049,277.09054 q 0,6.144 -2.112,9.408 -1.92,3.264 -7.488,3.264 -3.456,0 -5.76,-2.112 -2.304,-2.112 -3.84,-4.416 -1.344,-2.496 -6.528,-4.608 -4.992,-2.112 -13.632,-2.112 -7.296,0 -13.248,2.112 -5.76,1.92 -5.76,4.608 0,3.84 8.448,5.568 8.448,1.536 21.12,3.456 12.672,1.92 19.392,5.76 6.336,3.456 9.792,9.216 3.648,5.76 3.648,12.48 0,11.712 -12.096,19.392 -12.096,7.68 -30.72,7.68 -16.704,0 -28.416,-5.568 -2.88,2.304 -6.144,2.304 -9.792,0 -9.792,-12.672 v -6.336 q 0,-12.864 9.792,-12.864 7.296,0 9.792,8.448 8.256,7.488 24,7.488 9.216,0 15.744,-2.496 6.72,-2.496 6.72,-5.76 0,-7.488 -24.192,-9.984 -20.16,-2.112 -29.184,-8.256 -9.024,-6.144 -9.024,-17.472 0,-11.52 11.136,-18.816 11.136,-7.488 28.416,-7.488 14.016,0 24.768,4.992 2.112,-4.992 6.144,-4.992 9.024,0 9.024,12.672 z"
         style="font-weight:bold;font-size:192px;font-family:FreeMono;-inkscape-font-specification:'FreeMono, Bold'"
         id="path69085" />
    </g>
    <text
       xml:space="preserve"
       id="text13770"
       style="fill:black;fill-opacity:1;line-height:1.25;stroke:none;font-family:sans-serif;font-style:normal;font-weight:normal;font-size:40px;white-space:pre;shape-inside:url(#rect13772)" />
    <text
       xml:space="preserve"
       style="font-style:normal;font-weight:normal;font-size:40px;line-height:1.25;font-family:sans-serif;fill:#000000;fill-opacity:1;stroke:none"
       x="2134.7659"
       y="226.42619"
       id="text67090"><tspan
         sodipodi:role="line"
         id="tspan67088"
         x="2134.7659"
         y="226.42619"> </tspan></text>
    <text
       xml:space="preserve"
       style="font-style:normal;font-weight:normal;font-size:40px;line-height:1.25;font-family:sans-serif;letter-spacing:50px;word-spacing:0.09px;fill:#000000;fill-opacity:1;stroke:none"
       x="767.13501"
       y="426.13318"
       id="text72169"><tspan
         sodipodi:role="line"
         id="tspan72167"
         x="767.13501"
         y="426.13318"
         dx="98.300003"
         style="font-style:normal;font-variant:normal;font-weight:normal;font-stretch:normal;font-size:66.6667px;font-family:'Source Code Pro';-inkscape-font-specification:'Source Code Pro, Normal';font-variant-ligatures:normal;font-variant-caps:normal;font-variant-numeric:normal;font-variant-east-asian:normal">limited</tspan></text>
  </g>
</svg>
